<?xml version="1.0" encoding="utf-8"?>
<!-- Generator: Adobe Illustrator 23.0.1, SVG Export Plug-In . SVG Version: 6.00 Build 0)  -->
<svg version="1.1" id="Layer_1" xmlns="http://www.w3.org/2000/svg" xmlns:xlink="http://www.w3.org/1999/xlink" x="0px" y="0px"
	 viewBox="0 0 453.7 245" style="enable-background:new 0 0 453.7 245;" xml:space="preserve">
<style type="text/css">
	.st0{fill:#8A0032;}
</style>
<g>
	<path d="M20.1,150.2l14.7-66.8l14.4,0.1c-0.2,20.1-0.7,42.2-0.8,45.2l0.3,0c1.4-9.3,3.8-24.8,5.8-34.1l2.4-11l11.9,0.1l-14.7,66.8
		l-14.4-0.1c0.3-17.6,0.7-43.4,0.8-45.6l-0.3,0c-1.3,7.9-3.7,23.6-6,34.1l-2.5,11.4L20.1,150.2z"/>
	<path d="M70.1,97.8l12.6,0.1l-11.6,52.7l-12.6-0.1L70.1,97.8z M73.9,80.8l12.6,0.1l-2.6,11.6l-12.6-0.1L73.9,80.8z"/>
	<path d="M108.8,132.4l-0.5,2.4c-1.9,9.4-4.7,16.9-17.7,16.8c-13.5-0.1-14.6-9-12.3-19.1l4.1-18.7c1.8-8.3,5.2-16.6,17.4-16.6
		c13.9,0.1,14.7,9.1,13.1,17l-0.6,2.7l-12.1-0.1l0.9-4.5c0.6-3.1,0.7-5.2-1.8-5.3c-2.5,0-3.2,2.3-3.9,5.5L90,136.5
		c-0.7,2.8-0.5,5,2,5c2.5,0,3.2-2.4,4-5.9l0.8-3.3L108.8,132.4z"/>
	<path d="M147.1,115.9l-4.2,19.2c-2.5,11.5-7.4,16.8-18.7,16.7c-11.1-0.1-16-6.5-13.5-18l4.5-20.4c2.5-11.3,8.2-16.1,18.4-16
		C144.3,97.5,149.7,103.9,147.1,115.9z M128,113l-5.1,23.2c-0.8,3.3-0.1,5.5,2.7,5.5c2.7,0,3.7-2.3,4.4-5.6l5.1-23.2
		c0.7-3,0.6-5.5-2.6-5.5C129.5,107.4,128.7,109.8,128,113z"/>
	<path class="st0" d="M175.6,121.6l-13.8-0.1l-4,18.7l16.7,0.1l-3.8,11l-27.9-0.2l14.7-66.8l27.2,0.2l-2.5,11l-14.5-0.1l-3.3,15
		l13.8,0.1L175.6,121.6z"/>
	<path class="st0" d="M193.3,98.7c-1.4,16.4-2.9,31.7-4,38.8l0.3,0c2.2-7.3,9.2-26.8,13.4-38.7l13,0.1l-22.1,52.6l-15.1-0.1
		l1.7-52.8L193.3,98.7z"/>
	<path class="st0" d="M244.4,116.6l-4.2,19.2c-2.5,11.5-7.4,16.8-18.7,16.7c-11.1-0.1-16-6.5-13.5-18l4.5-20.4
		c2.5-11.3,8.2-16.1,18.4-16C241.6,98.2,247,104.6,244.4,116.6z M225.3,113.7l-5.1,23.2c-0.8,3.3-0.1,5.5,2.7,5.5
		c2.7,0,3.7-2.3,4.4-5.6l5.1-23.2c0.7-3,0.6-5.5-2.6-5.5C226.8,108.1,226,110.5,225.3,113.7z"/>
	<path class="st0" d="M239.8,151.8l15.3-69.7l12.6,0.1l-15.3,69.7L239.8,151.8z"/>
	<path class="st0" d="M277.5,99.3c-1.4,16.4-2.9,31.7-4,38.8l0.3,0c2.2-7.3,9.2-26.8,13.4-38.7l13,0.1l-22.1,52.6l-15.1-0.1
		l1.7-52.8L277.5,99.3z"/>
	<path class="st0" d="M306.2,129.2l-1.8,8.3c-0.8,3.4-0.3,5.7,2.3,5.7c2.8,0,3.6-2.6,4.2-5.3l0.5-2.3l12.3,0.1l-0.3,1.5
		c-1.8,8.9-5.3,16-18,15.9c-13.9-0.1-15.1-9.5-12.9-19.6l3.9-17.6c2.1-9.3,5.8-17.3,18.4-17.2c13.7,0.1,15.4,8.4,13.1,18.8
		l-2.6,11.7L306.2,129.2z M315.1,120.1l1.3-5.9c0.7-3.5,0.7-5.9-2.3-6c-2.6,0-3.6,1.6-4.5,5.9l-1.3,5.9L315.1,120.1z"/>
</g>
<path class="st0" d="M339.6,86c3,0.2,7.4,0.7,12.5,1.6c2.1,0.4,7.8,1.3,11,2.6c9.5,4,14.7,14.8,16.5,19.1c8.9,0.1,17.8,0.2,26.7,0.3
	c0.1-0.5,0.3-1.8,1.4-2.9c1-1.1,2-1.3,2.4-1.4c2.6,0,5.2,0,7.7,0.1c0.4,0,1.4,0.1,2.4,1c1.6,1.4,1.6,3.6,1.6,3.9
	c-0.1,9-0.1,18-0.2,27.1c-0.1,0.3-0.2,1.1-0.8,1.7c-0.6,0.7-1.2,1-1.5,1.1c-3.3,0-6.6,0-9.9,0c-0.4-0.2-1.2-0.6-1.9-1.6
	c-0.6-1-0.8-1.9-0.8-2.4c-8.8-0.1-17.5-0.3-26.3-0.4c-1.7,5-5.3,12.6-12.4,17.4c-5.5,3.7-10.9,4.1-19.5,5
	c-5.3,0.5-13.1,0.9-22.6-0.3C330.4,133.9,335,109.9,339.6,86z"/>
<path class="st0" d="M418.7,117.1c0.6,0.1,1.4,0.4,2.1,1c0.6,0.5,0.7,0.9,1.4,2.3c0.7,1.5,0.8,1.5,1.1,2.1c0.4,0.9,1.1,2.7,1.2,5.4
	c0.1,2.3,0,4.1-0.2,5.4c-0.3,2.3-0.7,3.4-0.8,5.6c-0.1,1.8,0.1,3.4,0.3,4.4c0.3,0.8,0.9,2.1,2.2,3.5c1.4,1.5,3,2.3,3.9,2.8
	c0.5,0.2,2.6,1.2,5.4,0.7c2.9-0.5,4.4-2.3,4.7-2.6c0.5-0.4,1.5-1.3,2.1-2.7c0.7-1.7,0.3-3.1,0.1-3.6c-0.8,0.4-2.2,0.8-3.8,0.7
	c-3-0.2-5.7-2.3-6.8-5.2c-1-3.3-2.1-6.7-3.1-10c-0.7-2.1-1.3-4.3-1.9-6.4c-0.3-0.9-1.1-2.8-3.2-4.5c-1.5-1.1-3-1.7-4-2
	c-0.6,0-1.1,0-1.7,0C418,114.9,418.4,116,418.7,117.1z"/>
</svg>
